<mxfile host="65bd71144e">
    <diagram id="X9mRS5iOwdcGR0T4mOnS" name="Page-1">
        <mxGraphModel dx="1612" dy="600" grid="0" gridSize="10" guides="1" tooltips="1" connect="1" arrows="1" fold="1" page="0" pageScale="1" pageWidth="850" pageHeight="1100" math="0" shadow="0">
            <root>
                <mxCell id="0"/>
                <mxCell id="1" parent="0"/>
                <mxCell id="2" value="NodeModules" style="whiteSpace=wrap;html=1;" parent="1" vertex="1">
                    <mxGeometry x="-60.5" y="214" width="120" height="60" as="geometry"/>
                </mxCell>
                <mxCell id="3" value="" style="whiteSpace=wrap;html=1;" parent="1" vertex="1">
                    <mxGeometry x="101" y="106" width="9" height="309" as="geometry"/>
                </mxCell>
                <mxCell id="5" value="Localhost" style="text;html=1;align=center;verticalAlign=middle;resizable=0;points=[];autosize=1;strokeColor=none;fillColor=none;" parent="1" vertex="1">
                    <mxGeometry x="-35" y="108" width="69" height="26" as="geometry"/>
                </mxCell>
                <mxCell id="6" value="Container" style="text;html=1;align=center;verticalAlign=middle;resizable=0;points=[];autosize=1;strokeColor=none;fillColor=none;" parent="1" vertex="1">
                    <mxGeometry x="177" y="108" width="70" height="26" as="geometry"/>
                </mxCell>
                <mxCell id="11" style="edgeStyle=none;html=1;entryX=1;entryY=0.5;entryDx=0;entryDy=0;" edge="1" parent="1" source="7" target="10">
                    <mxGeometry relative="1" as="geometry"/>
                </mxCell>
                <mxCell id="7" value="NodeModules" style="whiteSpace=wrap;html=1;" parent="1" vertex="1">
                    <mxGeometry x="157" y="212" width="120" height="60" as="geometry"/>
                </mxCell>
                <mxCell id="10" value="volume nomeado" style="whiteSpace=wrap;html=1;" vertex="1" parent="1">
                    <mxGeometry x="-60.5" y="335" width="120" height="60" as="geometry"/>
                </mxCell>
            </root>
        </mxGraphModel>
    </diagram>
</mxfile>